<svg width="16" height="16" viewBox="0 0 16 16" fill="none" xmlns="http://www.w3.org/2000/svg">
<path d="M2.7 1C2.51435 1 2.3363 1.07375 2.20503 1.20503C2.07375 1.3363 2 1.51435 2 1.7V14.3C2 14.4857 2.07375 14.6637 2.20503 14.795C2.3363 14.9262 2.51435 15 2.7 15H5.3C5.48565 15 5.6637 14.9262 5.79497 14.795C5.92625 14.6637 6 14.4857 6 14.3V1.7C6 1.51435 5.92625 1.3363 5.79497 1.20503C5.6637 1.07375 5.48565 1 5.3 1H2.7ZM10.7 1C10.5143 1 10.3363 1.07375 10.205 1.20503C10.0738 1.3363 10 1.51435 10 1.7V14.3C10 14.4857 10.0738 14.6637 10.205 14.795C10.3363 14.9262 10.5143 15 10.7 15H13.3C13.4857 15 13.6637 14.9262 13.795 14.795C13.9262 14.6637 14 14.4857 14 14.3V1.7C14 1.51435 13.9262 1.3363 13.795 1.20503C13.6637 1.07375 13.4857 1 13.3 1H10.7Z" fill="white"/>
</svg>
